<svg width="29.000000" height="29.000000" viewBox="0 0 29 29" fill="none" xmlns="http://www.w3.org/2000/svg"
	 xmlns:xlink="http://www.w3.org/1999/xlink">
	<path id="Shape"
		  d="M25.512 15.95C25.5858 15.5154 25.5858 15.0076 25.5858 14.5C25.5858 13.9924 25.512 13.5576 25.512 13.05L28.6257 10.6577C28.9226 10.4402 28.9965 10.0779 28.7742 9.71533L25.8081 4.7124C25.6597 4.42212 25.2151 4.27783 24.9181 4.42212L21.2104 5.87231C20.4689 5.29248 19.5796 4.78467 18.6897 4.42212L18.1705 0.579834C18.0966 0.290283 17.7997 0 17.429 0L11.4967 0C11.126 0 10.8291 0.290283 10.7551 0.579834L10.1621 4.42212C9.27209 4.78467 8.45667 5.29224 7.64062 5.87231L3.93298 4.42212C3.56213 4.27783 3.19141 4.42212 3.04297 4.7124L0.0769043 9.71533C-0.0709229 10.0049 0.00292969 10.4402 0.22522 10.6577L3.41394 13.05C3.41394 13.5576 3.33997 13.9924 3.33997 14.5C3.33997 15.0076 3.41394 15.4424 3.41394 15.95L0.300049 18.3423C0.00305176 18.5598 -0.0706787 18.9221 0.151611 19.2847L3.11768 24.2876C3.26611 24.5779 3.71082 24.7222 4.00769 24.5779L7.71533 23.1277C8.45691 23.7075 9.34619 24.2153 10.2361 24.5779L10.8292 28.4202C10.9037 28.7827 11.2 29 11.5707 29L17.5029 29C17.8738 29 18.1707 28.7097 18.2445 28.4202L18.8384 24.5779C19.7277 24.2153 20.5437 23.7078 21.359 23.1277L25.0668 24.5779C25.4375 24.7222 25.8082 24.5779 25.9568 24.2876L28.9229 19.2847C29.0713 18.9951 28.9967 18.5598 28.7744 18.3423L25.512 15.95ZM9.27222 14.5C9.27222 17.3279 11.5707 19.575 14.4629 19.575C17.3551 19.575 19.6536 17.3279 19.6536 14.5C19.6536 11.6721 17.3551 9.42505 14.4629 9.42505C11.5707 9.42505 9.27222 11.6721 9.27222 14.5Z"
		  clip-rule="evenodd" fill="#FFFFFF" fill-opacity="0.700000" fill-rule="evenodd"/>
</svg>
